<svg id="Capa_1" data-name="Capa 1" xmlns="http://www.w3.org/2000/svg" xmlns:xlink="http://www.w3.org/1999/xlink" viewBox="0 0 428.25 434.45"><defs><style>.cls-1{fill:#dbebee;}.cls-2{opacity:0.31;isolation:isolate;fill:url(#Degradado_sin_nombre_2);}.cls-3{fill:#c12c34;}.cls-4{fill:#e7bfa4;}.cls-5{fill:#dfac86;}.cls-6{fill:#d5842f;}.cls-7{fill:#e7d2bf;}.cls-8{fill:#d27931;}.cls-9{fill:#ce6b2a;}.cls-10{fill:#5baab6;}.cls-11{fill:#e0e0df;}.cls-12{fill:#2e9fad;}.cls-13{fill:#44a3ae;}.cls-14{fill:#fff;}.cls-15{fill:#3b995e;}.cls-16{fill:#1f3646;}.cls-17{fill:#ce9c97;}.cls-18{fill:#deafab;}.cls-19{fill:#b68986;}.cls-20{fill:#a5232d;}.cls-21{fill:#eecc64;}.cls-22{fill:#cf9975;}.cls-23{fill:#245363;stroke:#eecc64;stroke-miterlimit:10;stroke-width:0.25px;}</style><linearGradient id="Degradado_sin_nombre_2" x1="34.75" y1="65.76" x2="340.35" y2="65.76" gradientTransform="matrix(1, 0, 0, -1, 0, 326.11)" gradientUnits="userSpaceOnUse"><stop offset="0" stop-color="#6488a8"/><stop offset="0.3" stop-color="#678aa9"/><stop offset="0.48" stop-color="#6f8eab"/><stop offset="0.63" stop-color="#7f98b0"/><stop offset="0.77" stop-color="#95a6b8"/><stop offset="0.89" stop-color="#aeb6c1"/><stop offset="1" stop-color="#cdcccc"/></linearGradient></defs><title>janna2.2</title><rect class="cls-1" x="-0.65" y="-0.05" width="341.7" height="442.7"/><path class="cls-2" d="M340.35,225.75v208.7H80.45l23.5-42.2L87,388l-52.2-60s25.2-59.3,26.4-61.5,46.9-72.7,46.9-72.7l-4.9-38.1,4.5-46.9,107-22.5C214.75,86.25,288.45,167.15,340.35,225.75Z"/><polygon class="cls-3" points="76.95 153.85 113.95 191.45 213.75 190.15 254.35 159.95 170.95 103.25 76.95 153.85"/><path class="cls-4" d="M190.35,164.15l-28.2,2.7-28.2-2.7c0,1,.1,25.1.1,25.1l-8.2,1.8,31.1,44.4,5.2-1.2,5.2,1.2,31.1-44.4-7.1-5.8C191.35,185.15,190.35,165.05,190.35,164.15Z"/><path class="cls-5" d="M190.35,164.15l-28.2,2.7-28.2-2.7v.7a3.8,3.8,0,0,1,1.1,1.1c2.3,2.5,3.7,5.6,6.3,8,5.7,5.1,12.2,9.8,18.2,14.5a131.9,131.9,0,0,0,29,16.7l9.9-14.1-7.1-5.8C191.35,185.15,190.35,165.05,190.35,164.15Z"/><path class="cls-6" d="M125.85,39.35l-22.6,19.4-18.9,33.9a309,309,0,0,0,10.1,29.4c4.5-6.7,7.5-11.4,7.5-11.6,0-.9,35.5-38.7,35.5-38.7l19.7-10.2,14.9-2.4.6-9.7-16.6-15.1Z"/><path class="cls-7" d="M161,75.05h-32.1l-9.1,63.6,10.7,25,20.4,15.2a99,99,0,0,0,10.1.6,99,99,0,0,0,10.1-.6l20.4-15.2,10.7-25-9.1-63.6Z"/><path class="cls-6" d="M190.15,35.75l-31.8,13.7,7.5,9.7,2.9,13.3,13-11.7s21.1,7.1,22.4,7.1c.6,0,17.3,20.7,34.6,42.4,1.3-8,2.5-16.1,3.3-24.2l-32.4-42.6Z"/><path class="cls-8" d="M188.35,49.25l-20.1,18.5-1.3,5.5,4.2,9.6s12.4-8.6,13.4-8.9,9.3,6.8,10.6,6.8c.7,0,23.7,31.7,44,59.9a262.57,262.57,0,0,0,4.3-37.5l-38.8-47.4Z"/><path class="cls-8" d="M160.65,45.55l-31.1,10.7-17.2,17.1-27.8,39.1c1.8,11.6,4.9,23.1,7.3,34.6l7.4-13.4,65.5-66.2,7.5,8.4L168.35,55Z"/><path class="cls-9" d="M118.75,92l-31.4,58.1c1.5,4.9,14.6,26,16.3,26.7,6.7-13.3,14.6-29.1,14.6-29.1L145.35,90l36.1-7-11.4-32.6Z"/><path class="cls-9" d="M186.55,62.55l-15.7,20.6,16.7,16.5,14.1,43,25.6,29.8c1.8-1.4,12.1-20.8,15.3-29l-7.7-11.1Z"/><path class="cls-10" d="M169.35,99.35h-17.6l-34.6-27.8-10.4-8.3-3.3,3s15.2,75.8,17.2,75.8,25.9,5.6,25.9,5.6l13.9-10.3,13.9,10.3s24-5.6,25.9-5.6S217.85,66,217.85,66l-2.4-2.7Z"/><polygon class="cls-11" points="136.45 136.95 121.85 138.85 120.75 142.45 146.55 149.25 158.15 141.45 162.45 141.15 174.35 149.25 200.95 144.45 201.45 135.65 164.35 137.25 136.45 136.95"/><path class="cls-12" d="M160.65,103h-8.8l-48.6-37s15.6,76.5,17.5,76.5,25.9,5.2,25.9,5.2l13.9-9.5,13.9,9.5s24-5.2,25.9-5.2S218.05,66,218.05,66l-48.7,37Z"/><path class="cls-13" d="M160.65,103.25h-8.8l-48.6-37s.3,1.3.7,3.6l41.8,77.9a6.59,6.59,0,0,1,.9.2l13.9-9.5,13.9,9.5h0l41.8-80.5-47,35.8Z"/><path class="cls-12" d="M174.55,147.65c.2,0,24-5.2,25.9-5.2S218,66,218,66l-1.6,1.2Z"/><path class="cls-12" d="M120.75,142.45c1.7,0,20.5,4,25,5L104,69.55C107.05,84.65,119.05,142.45,120.75,142.45Z"/><polygon class="cls-4" points="125.05 124.35 125.45 126.05 129.75 135.55 154.45 137.75 151.85 128.25 125.05 124.35"/><path class="cls-14" d="M148,130c-.6,0-18.8-1.7-18.8-1.7l5.4,6.9,16.6,1.9,1.6-2.8C152.85,134.25,148.65,130,148,130Z"/><path class="cls-15" d="M138.85,127.85a5.46,5.46,0,0,0-1.8,2.4,6.46,6.46,0,0,0-.4,1.9,5.38,5.38,0,0,0,5.4,5.4,5.48,5.48,0,0,0,5.4-4.7c0-.2.1-.5.1-.7a5.66,5.66,0,0,0-1.3-3.6Z"/><path class="cls-16" d="M140.35,130.05a2.56,2.56,0,0,0-1,1.3,3.59,3.59,0,0,0-.2,1.1,3,3,0,0,0,6,.4v-.4a2.79,2.79,0,0,0-.8-2Z"/><polygon class="cls-16" points="146.15 128.65 138.85 127.85 120.05 125.95 135.95 130.05 149.45 131.05 152.85 134.25 150.65 129.15 146.15 128.65"/><polygon class="cls-4" points="167.15 138.05 191.75 135.85 196.05 126.35 196.55 124.65 169.75 128.55 167.15 138.05"/><path class="cls-14" d="M168.75,134.65l1.6,2.8,16.6-1.9,5.4-6.9s-18.2,1.7-18.8,1.7S168.75,134.65,168.75,134.65Z"/><path class="cls-15" d="M182.65,128.25l-7.3.7a5.46,5.46,0,0,0-1.3,3.6,1.7,1.7,0,0,0,.1.7,5.42,5.42,0,0,0,10.8-.7,4.06,4.06,0,0,0-.4-1.9A5.66,5.66,0,0,0,182.65,128.25Z"/><path class="cls-16" d="M181.25,130.35l-4.1.4a2.79,2.79,0,0,0-.8,2v.4a3,3,0,0,0,6-.4,3.59,3.59,0,0,0-.2-1.1A2,2,0,0,0,181.25,130.35Z"/><polygon class="cls-16" points="175.35 128.95 170.85 129.45 168.75 134.65 171.95 131.55 185.15 130.05 201.45 126.25 182.65 128.25 175.35 128.95"/><path class="cls-12" d="M184.45,194.45a28.43,28.43,0,0,1-42.6.1l-11.7-13.1-34.4,14.9.6,36.3,28.5,90.8,29.2,9.9-.6,9.3,13-5.1,1.6.6V337l32.5-12.8,28.5-90.8.6-36.3-34.3-15Z"/><path class="cls-17" d="M270.35,219.45l-7.3-14.3-12.1-9.9-35.5-13,13.4,79.1s20.3,49.3,21.6,49.7,28.1,16,28.1,16l9.9-2.6,4.8-34.6-11.7-50.2Z"/><polygon class="cls-18" points="267.75 269.65 234.85 290.35 246.15 310.65 263.35 325.35 286.75 329.25 291.95 315.45 286.75 290.35 267.75 269.65"/><path class="cls-17" d="M245.15,403.75l-.9-3.3-1.5-5.4-4.4-15.7-16.2-24.6-11.3-17.1-5.2-18.8,30.5-52.8,3-5.1,1.5-60.7-40.2-9.7,9.1,44.8-46,88.6-47.7-88.6,9.1-44.8-40.2,9.7-2.4,52.5,5.8,10.3,31.6,55.9-5.2,18.8-8,12.7-17.8,28.1-.8,1.3-8.6,45.4-1.8,9.8h87.2v-.4l12.3.4c1.9,0,40.9-.1,62.6-.2,8.4,0,14.2-.1,14.2-.1l-7-25Z"/><path class="cls-19" d="M88.05,263.05l31.6,55.9-5.2,18.8L104,354.35c3.3-3,6.5-6.1,9.8-9.2,4.4-4.1,9-8.1,13.3-12.3l3.4-6.8s-30.5-75.2-31.8-77.2C98.05,247.85,92.85,255.45,88.05,263.05Z"/><path class="cls-18" d="M106.55,350.35,88,379.85,77.55,435h14.5l14.4-61,18.5-39.2c-2.7,2.5-7.4,6.6-10.1,9.1A56.34,56.34,0,0,1,106.55,350.35Z"/><path class="cls-19" d="M245.15,403.75l-.9-3.3-1.5-5.4-4.4-15.7-16.2-24.6-11.3-17.1-5.2-18.8,30.5-52.8-5.9-12.7L207,285.15l-12.3,32.4,9.7,29.2,6.6,13.8,16.3,34.3,4.2,8.8,1.5,3,2,4.3.2.8,4.7,23c8.4,0,14.2-.1,14.2-.1l-7-25Z"/><path class="cls-3" d="M221.45,183.55c-7.4-6.5-15.1-9.9-15.5-10.3l-2.6.5c-2.8,8.1-9.1,3-11.7,11.2l7.9,30-5,28.7-31.8,80.4,78.3-120A207.69,207.69,0,0,0,221.45,183.55Z"/><path class="cls-17" d="M58.45,208.65,51.05,223l-11.2,20.3-9.5,48.4,1.8,27.7,12.1,7.3s25.5-11.7,26.8-12.1,21.6-49.7,21.6-49.7l13.4-79.1-35.5,13Z"/><path class="cls-3" d="M125.15,219.15l8.5-34.9c-2.6-8.2-8.9-3.1-11.7-11.2l-2.6-.5c-.7.9-35.1,30.9-35.1,30.9l79,120.3-31.6-75.9Z"/><polygon class="cls-18" points="30.75 291.25 28.35 316.25 33.55 330.15 58.85 326.85 77.45 314.95 85.45 291.25 52.55 270.45 30.75 291.25"/><path class="cls-20" d="M228,222.05l-10.2-7.5-8,1.4-11.3-6c-1.9,2.1-3.8,4.3-5.5,6.6l2.8,3.7-2.9-1-.9,8,1.9,1.2,5.4,3.5-6.3-3-1.7,6.5,3.7,2.8v5l7.3,8.3,14.3,4.3,7.3,3.5,9.5,40.2,36.3-29.2-29.2-25.5Z"/><path class="cls-20" d="M130.85,232.35l2.9-3,2-1.2-.9-7.8-.2-.2-5.3,2.3,4-3.5c-1.3-1.2-4-3.4-5.3-4.4l-10.8,2.3-9-1.6-9.9,7.6-13.2,21.4-36.4,25.2L86,299.25l16.4-39.3,7.7-3.5,14.9-4.3,8.6-9.1,1-3.4,2-3.6-1.8-6.5Z"/><polygon class="cls-3" points="222.15 354.85 210.95 360.55 199.85 366.25 157.05 377.95 88.75 378.55 83.75 378.55 74.65 425.25 79.35 425.25 88.95 425.15 146.05 424.65 231.35 403.65 244.25 400.55 245.85 400.15 249.15 399.35 229.05 351.35 222.15 354.85"/><path class="cls-21" d="M210.25,355.85c0-1.9-24,13-25.9,13.6l5.8,24.6,5.2,22.1,31.1-7.1-1.3-21.4S210.25,357.85,210.25,355.85Z"/><polygon class="cls-3" points="194.65 379.25 203.75 410.35 220.55 403.25 205.65 368.85 194.65 379.25"/><polygon class="cls-21" points="103.45 404.45 106.05 410.15 111.65 405.35 106.85 399.35 103.45 404.45"/><polygon class="cls-21" points="121.15 402.75 123.75 408.35 129.35 403.65 124.65 397.55 121.15 402.75"/><polygon class="cls-21" points="144.95 399.75 147.55 405.35 153.15 400.65 148.35 394.55 144.95 399.75"/><polygon class="cls-21" points="167.85 395.85 170.45 401.45 176.05 396.75 171.35 390.65 167.85 395.85"/><polygon class="cls-21" points="201.15 388.05 203.75 393.65 209.35 388.95 204.55 382.85 201.15 388.05"/><polygon class="cls-21" points="225.75 378.55 228.35 384.15 233.95 379.45 229.25 373.35 225.75 378.55"/><polygon class="cls-3" points="165.25 159.55 161.15 161.65 157.45 159.75 152.05 162.35 149.15 161.45 150.75 164.45 157.45 162.95 160.95 164.45 164.85 162.75 171.35 164.95 174.05 161.75 170.05 162.75 165.25 159.55"/><path class="cls-22" d="M153.75,167.45a11.37,11.37,0,0,0,1.5,2.3c1.9-.8,10.7.3,10.7.3a5.76,5.76,0,0,0,2.3-2.4C163.35,169.05,154.65,167.45,153.75,167.45Z"/><polygon class="cls-5" points="163.85 154.15 159.95 154.15 157.05 151.85 153.75 151.85 161.95 157.75 170.35 153.15 168.75 151.25 163.85 154.15"/><path class="cls-3" d="M152.75,165s1.6,2.5,7.8,2.5,8.8-2.2,8.8-2.2-5,.5-8.4.6A66.84,66.84,0,0,1,152.75,165Z"/><path class="cls-21" d="M146.85,227.05l-8.1,13.1,26.4,30,23.4-32.1-7.6-12.7Zm17,30.7-17.2-17.6,4.4-5.1,27.1-2.7,2.4,5Z"/><path class="cls-23" d="M136.85,253.65a2.18,2.18,0,0,1,3.2-.4,7.11,7.11,0,0,0,4.7,1.9,5.87,5.87,0,0,0,2.9-.8,1.89,1.89,0,0,0,.8-1.3c0-.2,0-.3-.1-.4s-.2-.3-.6-.5a10.76,10.76,0,0,0-3.4-1.2h0a14.59,14.59,0,0,1-3.7-1.2,6.62,6.62,0,0,1-2.9-2.6,5.3,5.3,0,0,1-.7-2.8,6.4,6.4,0,0,1,2.5-4.9,8.75,8.75,0,0,1,5.3-1.6,11.47,11.47,0,0,1,6.4,2.4,2.61,2.61,0,0,1,.7,3.3,2.18,2.18,0,0,1-3.2.6,7.56,7.56,0,0,0-3.9-1.6,4.71,4.71,0,0,0-2.6.8c-.6.4-.7.8-.7,1a.6.6,0,0,0,.1.4c0,.1.2.3.5.4a9.77,9.77,0,0,0,3.1,1.1h0a18.71,18.71,0,0,1,4,1.3,6.29,6.29,0,0,1,3,2.6,6,6,0,0,1,.8,2.9,6.37,6.37,0,0,1-2.7,5.1,9.59,9.59,0,0,1-5.6,1.8,11.57,11.57,0,0,1-7.6-3.1A2.43,2.43,0,0,1,136.85,253.65Z"/><path class="cls-23" d="M156,253.15a11.34,11.34,0,0,1-2.9-7.8,12.11,12.11,0,0,1,2.9-7.8,9.78,9.78,0,0,1,7.4-3.4,9.16,9.16,0,0,1,7.1,3.4,11.31,11.31,0,0,1,3,7.8,11.13,11.13,0,0,1-3,7.8,9.32,9.32,0,0,1-7.1,3.4A9.94,9.94,0,0,1,156,253.15Zm1.7-7.7a7.76,7.76,0,0,0,1.5,4.7,5.58,5.58,0,0,0,4.1,1.6,5.52,5.52,0,0,0,3.9-1.6,6.77,6.77,0,0,0,1.7-4.7,6.69,6.69,0,0,0-1.7-4.6,5.81,5.81,0,0,0-3.9-1.7,6.1,6.1,0,0,0-4.1,1.7A7.24,7.24,0,0,0,157.65,245.45Z"/><path class="cls-23" d="M174.75,244.15a2.18,2.18,0,0,1,3.2-.4,7.11,7.11,0,0,0,4.7,1.9,5.87,5.87,0,0,0,2.9-.8,1.89,1.89,0,0,0,.8-1.3c0-.2,0-.3-.1-.4s-.2-.3-.6-.5a10.76,10.76,0,0,0-3.4-1.2h0a14.59,14.59,0,0,1-3.7-1.2,6.62,6.62,0,0,1-2.9-2.6,5.3,5.3,0,0,1-.7-2.8,6.4,6.4,0,0,1,2.5-4.9,8.75,8.75,0,0,1,5.3-1.6,11.47,11.47,0,0,1,6.4,2.4,2.61,2.61,0,0,1,.7,3.3,2.18,2.18,0,0,1-3.2.6,7.56,7.56,0,0,0-3.9-1.6,4.71,4.71,0,0,0-2.6.8c-.6.4-.7.8-.7,1a.6.6,0,0,0,.1.4c0,.1.2.3.5.4a9.77,9.77,0,0,0,3.1,1.1h0a18.71,18.71,0,0,1,4,1.3,6.29,6.29,0,0,1,3,2.6,6,6,0,0,1,.8,2.9,6.37,6.37,0,0,1-2.7,5.1,9.59,9.59,0,0,1-5.6,1.8,11.57,11.57,0,0,1-7.6-3.1A2.34,2.34,0,0,1,174.75,244.15Z"/><path class="cls-23" d="M273.85,114.25c-17.7-10.5-28.8-25.4-28.8-41.9,0-31.8,41-57.5,91.6-57.5s91.6,25.8,91.6,57.5-41,57.5-91.6,57.5a142.18,142.18,0,0,1-35.3-4.4c-10,5.4-27.5,14.2-38.7,16.1-2.7,0-4.8-.6-3.6-2.1C260,138.25,269.15,125.35,273.85,114.25Z"/><path class="cls-14" d="M277.25,61.35v-7.6l-4.6-13.2h5.1l1.2,4.8c.3,1.3.6,2.8.9,4.3h.1c.2-1.4.4-2.9.7-4.4l1-4.7h4.9l-4.6,13v7.8Z"/><path class="cls-14" d="M292.05,61.55c-4,0-6.2-3-6.2-7.8,0-5.4,3-7.9,6.2-7.9,3.9,0,6.1,3.2,6.1,7.8,0,6.5-3.8,7.9-6.1,7.9Zm.1-3.6c1,0,1.3-2.1,1.3-4.3,0-2-.3-4.2-1.4-4.2s-1.5,2.2-1.5,4.2c0,2.7.4,4.3,1.6,4.3Z"/><path class="cls-14" d="M312.25,56.45c0,1.6.1,3.3.1,4.8h-4.1l-.2-1.6H308a4.49,4.49,0,0,1-3.6,1.9c-3,0-4.2-2.2-4.2-6.4v-9H305v8.5c0,1.8.4,2.9,1.3,2.9a1.22,1.22,0,0,0,1-.6,2.06,2.06,0,0,0,.3-1.3v-9.6h4.8v10.4Z"/><path class="cls-14" d="M331.05,57.85c0,1.2.1,2.4.2,3.5H327l-.2-1.4h-.1a4.13,4.13,0,0,1-3.5,1.7c-2.4,0-4.2-2-4.2-4.7,0-4.1,3.7-5.7,7.1-5.7V51c0-.8-.8-1.5-2-1.5a6,6,0,0,0-3.3.9l-.8-3.2a11.27,11.27,0,0,1,5.2-1.2c5.3,0,5.8,3.8,5.8,6.7v5.2Zm-4.7-3.7c-1.4,0-2.8.6-2.8,2.2,0,1.3.8,1.8,1.3,1.8a1.45,1.45,0,0,0,1.4-.9,1.27,1.27,0,0,0,.1-.6Z"/><path class="cls-14" d="M333.65,51c0-1.6-.1-3.3-.1-4.8h4.1l.2,2.2h.1a3.35,3.35,0,0,1,2.9-2.4,2.79,2.79,0,0,1,1,.1v4.7a3.08,3.08,0,0,0-1-.1,2.39,2.39,0,0,0-2.3,1.7,5.67,5.67,0,0,0-.2,1.6v7.4h-4.8V51Z"/><path class="cls-14" d="M347.45,55.65c.1,1.4,1.2,2.2,3.1,2.2a9.14,9.14,0,0,0,3.1-.5l.6,3.4a14.17,14.17,0,0,1-4.5.7c-4.3,0-6.8-2.6-6.8-7.4,0-5.2,2.9-8.2,6.5-8.2,3.3,0,5.5,2.3,5.5,7.4a10.28,10.28,0,0,1-.2,2.4Zm3.2-3.3c0-1.5-.2-3.1-1.5-3.1s-1.6,1.8-1.6,3.1Z"/><path class="cls-14" d="M274.75,88c0-1.6-.1-3.3-.1-4.8h4.1l.2,1.7h.1a4.55,4.55,0,0,1,3.8-2c3.2,0,4.2,2.6,4.2,5.9v9.5h-4.8v-9.4c0-1-.3-2-1.2-2a1.35,1.35,0,0,0-1.2.9,4.64,4.64,0,0,0-.2,1.4v9.1h-4.8V88Z"/><path class="cls-14" d="M295.25,98.55c-4,0-6.2-3-6.2-7.8,0-5.4,3-7.9,6.2-7.9,3.9,0,6.1,3.2,6.1,7.8.1,6.5-3.8,7.9-6.1,7.9Zm.1-3.6c1,0,1.3-2.1,1.3-4.3,0-2-.3-4.2-1.4-4.2s-1.5,2.2-1.5,4.2c.1,2.7.5,4.3,1.6,4.3Z"/><path class="cls-14" d="M309.15,79.05v4.1h3v3.3h-3v6c0,1.7.7,2.1,1.5,2.1a4.1,4.1,0,0,0,1.1-.1v3.7a9.87,9.87,0,0,1-2.8.3,4.72,4.72,0,0,1-3.2-1c-.9-.8-1.4-2.1-1.4-4.6v-6.4h-1.8v-3.3h1.8v-2.7Z"/><path class="cls-14" d="M330,94.85c0,1.2.1,2.4.2,3.5h-4.3l-.2-1.4h-.1a4.13,4.13,0,0,1-3.5,1.7c-2.4,0-4.2-2-4.2-4.7,0-4.1,3.7-5.7,7.1-5.7V88c0-.8-.8-1.5-2-1.5a6,6,0,0,0-3.3.9l-.8-3.2a11.27,11.27,0,0,1,5.2-1.2c5.3,0,5.8,3.8,5.8,6.7v5.2Zm-4.6-3.7c-1.4,0-2.8.6-2.8,2.2,0,1.3.8,1.8,1.3,1.8a1.45,1.45,0,0,0,1.4-.9,1.27,1.27,0,0,0,.1-.6Z"/><path class="cls-14" d="M332.65,77h4.8v21.3h-4.8Z"/><path class="cls-14" d="M345.75,98.55c-4,0-6.2-3-6.2-7.8,0-5.4,3-7.9,6.2-7.9,3.9,0,6.1,3.2,6.1,7.8,0,6.5-3.9,7.9-6.1,7.9Zm0-3.6c1,0,1.3-2.1,1.3-4.3,0-2-.3-4.2-1.4-4.2s-1.5,2.2-1.5,4.2c.1,2.7.5,4.3,1.6,4.3Z"/><path class="cls-14" d="M354,88c0-1.6-.1-3.3-.1-4.8H358l.2,1.7h.1a4.55,4.55,0,0,1,3.8-2c3.2,0,4.2,2.6,4.2,5.9v9.5h-4.8v-9.4c0-1-.3-2-1.2-2a1.35,1.35,0,0,0-1.2.9,4.64,4.64,0,0,0-.2,1.4v9.1h-4.8V88Z"/><path class="cls-14" d="M373,92.75c.1,1.4,1.2,2.2,3.1,2.2a9.14,9.14,0,0,0,3.1-.5l.6,3.4a14.17,14.17,0,0,1-4.5.7c-4.3,0-6.8-2.6-6.8-7.4,0-5.2,2.9-8.2,6.5-8.2,3.3,0,5.5,2.3,5.5,7.4a10.28,10.28,0,0,1-.2,2.4Zm3.1-3.3c0-1.5-.2-3.1-1.5-3.1s-1.6,1.8-1.6,3.1Z"/><path class="cls-14" d="M390,98.55a2.85,2.85,0,0,1,0-5.7,2.68,2.68,0,0,1,2.7,2.9,2.65,2.65,0,0,1-2.7,2.8Zm-2-7.4-.6-13.6h5.2l-.6,13.6Z"/><path class="cls-14" d="M397.65,98.55a2.85,2.85,0,0,1,0-5.7,2.68,2.68,0,0,1,2.7,2.9,2.6,2.6,0,0,1-2.7,2.8Zm-2-7.4-.6-13.6h5.2l-.6,13.6Z"/><path class="cls-14" d="M405.35,98.55a2.85,2.85,0,0,1,0-5.7,2.68,2.68,0,0,1,2.7,2.9,2.6,2.6,0,0,1-2.7,2.8Zm-2-7.4-.6-13.6H408l-.6,13.6Z"/></svg>