<svg id="Capa_1" data-name="Capa 1" xmlns="http://www.w3.org/2000/svg" xmlns:xlink="http://www.w3.org/1999/xlink" viewBox="0 0 428.9 533.11"><defs><style>.cls-1{fill:#def0f2;}.cls-2{opacity:0.31;isolation:isolate;fill:url(#Degradado_sin_nombre);}.cls-3{fill:#cf1e32;}.cls-4{fill:#f2c4a5;}.cls-5{fill:#e7b088;}.cls-6{fill:#f28b15;}.cls-7{fill:#ead4c1;}.cls-8{fill:#e77e22;}.cls-9{fill:#dd6d21;}.cls-10{fill:#e0e0e0;}.cls-11{fill:#5cc0cb;}.cls-12{fill:#1cb1c0;}.cls-13{fill:#3dbac4;}.cls-14{fill:#fff;}.cls-15{fill:#30ac62;}.cls-16{fill:#203647;}.cls-17{fill:#d4a09a;}.cls-18{fill:#e4b2ae;}.cls-19{fill:#bc8c89;}.cls-20{fill:#af182c;}.cls-21{fill:#ffd55e;}.cls-22{fill:#d69d77;}.cls-23{fill:#235667;stroke:#ffd55e;stroke-miterlimit:10;stroke-width:0.25px;}.cls-24{fill:#662681;}</style><linearGradient id="Degradado_sin_nombre" x1="35.4" y1="295.49" x2="341" y2="295.49" gradientTransform="matrix(1, 0, 0, -1, 0, 555.89)" gradientUnits="userSpaceOnUse"><stop offset="0" stop-color="#678eb0"/><stop offset="0.3" stop-color="#6a90b1"/><stop offset="0.48" stop-color="#7394b3"/><stop offset="0.63" stop-color="#839db7"/><stop offset="0.77" stop-color="#97a9bd"/><stop offset="0.89" stop-color="#b0b8c4"/><stop offset="1" stop-color="#cdcccc"/></linearGradient></defs><title>yana2</title><rect class="cls-1" width="341.7" height="442.7"/><path class="cls-2" d="M341,225.8V434.5H81.1l23.5-42.2-17-4.3L35.4,328s25.2-59.3,26.4-61.5,46.9-72.7,46.9-72.7l-4.9-38.1,4.5-46.9,107-22.5C215.4,86.3,289.1,167.2,341,225.8Z"/><polygon class="cls-3" points="77.6 153.9 114.6 191.5 214.4 190.2 255 160 171.6 103.3 77.6 153.9"/><path class="cls-4" d="M191,164.2l-28.2,2.7-28.2-2.7c0,1,.1,25.1.1,25.1l-8.2,1.8,31.1,44.4,5.2-1.2,5.2,1.2,31.1-44.4-7.1-5.8C192,185.2,191,165.1,191,164.2Z"/><path class="cls-5" d="M191,164.2l-28.2,2.7-28.2-2.7v.7a3.8,3.8,0,0,1,1.1,1.1c2.3,2.5,3.7,5.6,6.3,8,5.7,5.1,12.2,9.8,18.2,14.5a131.9,131.9,0,0,0,29,16.7l9.9-14.1-7.1-5.8C192,185.2,191,165.1,191,164.2Z"/><path class="cls-6" d="M126.5,39.4,103.9,58.8,85,92.7a309,309,0,0,0,10.1,29.4c4.5-6.7,7.5-11.4,7.5-11.6,0-.9,35.5-38.7,35.5-38.7l19.7-10.2,14.9-2.4.6-9.7L156.7,34.4Z"/><path class="cls-7" d="M161.6,75.1H129.5l-9.1,63.6,10.7,25,20.4,15.2a99,99,0,0,0,10.1.6,99,99,0,0,0,10.1-.6l20.4-15.2,10.7-25-9.1-63.6Z"/><path class="cls-6" d="M190.8,35.8,159,49.5l7.5,9.7,2.9,13.3,13-11.7s21.1,7.1,22.4,7.1c.6,0,17.3,20.7,34.6,42.4,1.3-8,2.5-16.1,3.3-24.2L210.3,43.5Z"/><path class="cls-8" d="M189,49.3,168.9,67.8l-1.3,5.5,4.2,9.6s12.4-8.6,13.4-8.9,9.3,6.8,10.6,6.8c.7,0,23.7,31.7,44,59.9a262.57,262.57,0,0,0,4.3-37.5L205.3,55.8Z"/><path class="cls-8" d="M161.3,45.6,130.2,56.3,113,73.4,85.2,112.5c1.8,11.6,4.9,23.1,7.3,34.6l7.4-13.4,65.5-66.2,7.5,8.4L169,55Z"/><path class="cls-9" d="M119.4,92,88,150.1c1.5,4.9,14.6,26,16.3,26.7,6.7-13.3,14.6-29.1,14.6-29.1L146,90l36.1-7L170.7,50.4Z"/><path class="cls-9" d="M187.2,62.6,171.5,83.2l16.7,16.5,14.1,43,25.6,29.8c1.8-1.4,12.1-20.8,15.3-29l-7.7-11.1Z"/><path class="cls-10" d="M175.7,92.6l-15.6-.3-13-8L121.2,62.2,116,64.4s13,63.1,13,67c0,5.2,39.3-3,39.3-3l33.7,7.4,24.6-60.1L224,71.4Z"/><path class="cls-11" d="M170,99.4H152.4L117.8,71.6l-10.4-8.3-3.3,3s15.2,75.8,17.2,75.8,25.9,5.6,25.9,5.6l13.9-10.3L175,147.7s24-5.6,25.9-5.6S218.5,66,218.5,66l-2.4-2.7Z"/><polygon class="cls-10" points="137.1 137 122.5 138.9 121.4 142.5 147.2 149.3 158.8 141.5 163.1 141.2 175 149.3 201.6 144.5 202.1 135.7 165 137.3 137.1 137"/><path class="cls-12" d="M161.3,103h-8.8L103.9,66s15.6,76.5,17.5,76.5,25.9,5.2,25.9,5.2l13.9-9.5,13.9,9.5s24-5.2,25.9-5.2S218.7,66,218.7,66L170,103Z"/><path class="cls-13" d="M161.3,103.3h-8.8l-48.6-37s.3,1.3.7,3.6l41.8,77.9a6.59,6.59,0,0,1,.9.2l13.9-9.5,13.9,9.5h0l41.8-80.5-47,35.8Z"/><path class="cls-12" d="M175.2,147.7c.2,0,24-5.2,25.9-5.2S218.6,66,218.6,66L217,67.2Z"/><path class="cls-12" d="M121.4,142.5c1.7,0,20.5,4,25,5L104.6,69.6C107.7,84.7,119.7,142.5,121.4,142.5Z"/><polygon class="cls-4" points="125.7 124.4 126.1 126.1 130.4 135.6 155.1 137.8 152.5 128.3 125.7 124.4"/><path class="cls-14" d="M148.6,130c-.6,0-18.8-1.7-18.8-1.7l5.4,6.9,16.6,1.9,1.6-2.8C153.5,134.3,149.3,130,148.6,130Z"/><path class="cls-15" d="M139.5,127.9a5.46,5.46,0,0,0-1.8,2.4,6.46,6.46,0,0,0-.4,1.9,5.38,5.38,0,0,0,5.4,5.4,5.48,5.48,0,0,0,5.4-4.7c0-.2.1-.5.1-.7a5.66,5.66,0,0,0-1.3-3.6Z"/><path class="cls-16" d="M141,130.1a2.56,2.56,0,0,0-1,1.3,3.59,3.59,0,0,0-.2,1.1,3,3,0,0,0,6,.4v-.4a2.79,2.79,0,0,0-.8-2Z"/><polygon class="cls-16" points="146.8 128.7 139.5 127.9 120.7 126 136.6 130.1 150.1 131.1 153.5 134.3 151.3 129.2 146.8 128.7"/><polygon class="cls-4" points="167.8 138.1 192.4 135.9 196.7 126.4 197.2 124.7 170.4 128.6 167.8 138.1"/><path class="cls-14" d="M169.4,134.7l1.6,2.8,16.6-1.9,5.4-6.9s-18.2,1.7-18.8,1.7S169.4,134.7,169.4,134.7Z"/><path class="cls-15" d="M183.3,128.3l-7.3.7a5.46,5.46,0,0,0-1.3,3.6,1.7,1.7,0,0,0,.1.7,5.42,5.42,0,0,0,10.8-.7,4.06,4.06,0,0,0-.4-1.9A5.66,5.66,0,0,0,183.3,128.3Z"/><path class="cls-16" d="M181.9,130.4l-4.1.4a2.79,2.79,0,0,0-.8,2v.4a3,3,0,0,0,6-.4,3.59,3.59,0,0,0-.2-1.1A2,2,0,0,0,181.9,130.4Z"/><polygon class="cls-16" points="176 129 171.5 129.5 169.4 134.7 172.6 131.6 185.8 130.1 202.1 126.3 183.3 128.3 176 129"/><path class="cls-12" d="M185.1,194.5a28.43,28.43,0,0,1-42.6.1l-11.7-13.1L96.4,196.4l.6,36.3,28.5,90.8,29.2,9.9-.6,9.3,13-5.1,1.6.6V337l32.5-12.8,28.5-90.8.6-36.3-34.3-15Z"/><path class="cls-17" d="M271,219.5l-7.3-14.3-12.1-9.9-35.5-13,13.4,79.1s20.3,49.3,21.6,49.7,28.1,16,28.1,16l9.9-2.6,4.8-34.6-11.7-50.2Z"/><polygon class="cls-18" points="268.4 269.7 235.5 290.4 246.8 310.7 264 325.4 287.4 329.3 292.6 315.5 287.4 290.4 268.4 269.7"/><path class="cls-17" d="M245.8,403.8l-.9-3.3-1.5-5.4L239,379.4l-16.2-24.6-11.3-17.1-5.2-18.8,30.5-52.8,3-5.1,1.5-60.7-40.2-9.7,9.1,44.8-46,88.6-47.7-88.6,9.1-44.8-40.2,9.7L83,252.8l5.8,10.3L120.4,319l-5.2,18.8-8,12.7L89.4,378.6l-.8,1.3L80,425.3l-1.8,9.8h87.2v-.4l12.3.4c1.9,0,40.9-.1,62.6-.2,8.4,0,14.2-.1,14.2-.1l-7-25Z"/><path class="cls-19" d="M88.7,263.1,120.3,319l-5.2,18.8-10.5,16.6c3.3-3,6.5-6.1,9.8-9.2,4.4-4.1,9-8.1,13.3-12.3l3.4-6.8s-30.5-75.2-31.8-77.2C98.7,247.9,93.5,255.5,88.7,263.1Z"/><path class="cls-18" d="M107.2,350.4,88.6,379.9,78.2,435H92.7l14.4-61,18.5-39.2c-2.7,2.5-7.4,6.6-10.1,9.1A56.34,56.34,0,0,1,107.2,350.4Z"/><path class="cls-19" d="M245.8,403.8l-.9-3.3-1.5-5.4L239,379.4l-16.2-24.6-11.3-17.1-5.2-18.8,30.5-52.8-5.9-12.7-23.3,31.8-12.3,32.4,9.7,29.2,6.6,13.8,16.3,34.3,4.2,8.8,1.5,3,2,4.3.2.8,4.7,23c8.4,0,14.2-.1,14.2-.1l-7-25Z"/><path class="cls-10" d="M220.7,221.7l-55.8,99.4,82.6-115.4s-22.5-21.6-25.4-22.1Z"/><path class="cls-3" d="M222.1,183.6c-7.4-6.5-15.1-9.9-15.5-10.3l-2.6.5c-2.8,8.1-9.1,3-11.7,11.2l7.9,30-5,28.7-31.8,80.4,78.3-120A207.69,207.69,0,0,0,222.1,183.6Z"/><path class="cls-17" d="M59.1,208.7,51.7,223,40.5,243.3,31,291.7l1.8,27.7,12.1,7.3S70.4,315,71.7,314.6s21.6-49.7,21.6-49.7l13.4-79.1-35.5,13Z"/><path class="cls-3" d="M125.8,219.2l8.5-34.9c-2.6-8.2-8.9-3.1-11.7-11.2l-2.6-.5c-.7.9-35.1,30.9-35.1,30.9l79,120.3-31.6-75.9Z"/><polygon class="cls-18" points="31.4 291.3 29 316.3 34.2 330.2 59.5 326.9 78.1 315 86.1 291.3 53.2 270.5 31.4 291.3"/><path class="cls-20" d="M228.6,222.1l-10.2-7.5-8,1.4-11.3-6c-1.9,2.1-3.8,4.3-5.5,6.6l2.8,3.7-2.9-1-.9,8,1.9,1.2,5.4,3.5-6.3-3-1.7,6.5,3.7,2.8v5l7.3,8.3,14.3,4.3,7.3,3.5,9.5,40.2,36.3-29.2-29.2-25.5Z"/><path class="cls-20" d="M131.5,232.4l2.9-3,2-1.2-.9-7.8-.2-.2-5.3,2.3,4-3.5c-1.3-1.2-4-3.4-5.3-4.4l-10.8,2.3-9-1.6L99,222.9,85.8,244.3,49.4,269.5l37.2,29.8L103,260l7.7-3.5,14.9-4.3,8.6-9.1,1-3.4,2-3.6-1.8-6.5Z"/><path class="cls-10" d="M244.9,400.6l1.6-.4-3.1-5-1.2-2-14.3,1.7-66.7,8L89.7,425.2l-2.4.8,64.9.3,83.7-14.4,11.8-2-1.7-6Z"/><polygon class="cls-3" points="222.8 354.9 211.6 360.6 200.5 366.3 157.7 378 89.4 378.6 84.4 378.6 75.3 425.3 80 425.3 89.6 425.2 146.7 424.7 232 403.7 244.9 400.6 246.5 400.2 249.8 399.4 229.7 351.4 222.8 354.9"/><path class="cls-21" d="M210.9,355.9c0-1.9-24,13-25.9,13.6l5.8,24.6,5.2,22.1,31.1-7.1-1.3-21.4S210.9,357.9,210.9,355.9Z"/><polygon class="cls-3" points="195.3 379.3 204.4 410.4 221.2 403.3 206.3 368.9 195.3 379.3"/><polygon class="cls-21" points="104.1 404.5 106.7 410.2 112.3 405.4 107.5 399.4 104.1 404.5"/><polygon class="cls-21" points="121.8 402.8 124.4 408.4 130 403.7 125.3 397.6 121.8 402.8"/><polygon class="cls-21" points="145.6 399.8 148.2 405.4 153.8 400.7 149 394.6 145.6 399.8"/><polygon class="cls-21" points="168.5 395.9 171.1 401.5 176.7 396.8 172 390.7 168.5 395.9"/><polygon class="cls-21" points="201.8 388.1 204.4 393.7 210 389 205.2 382.9 201.8 388.1"/><polygon class="cls-21" points="226.4 378.6 229 384.2 234.6 379.5 229.9 373.4 226.4 378.6"/><polygon class="cls-3" points="165.9 159.6 161.8 161.7 158.1 159.8 152.7 162.4 149.8 161.5 151.4 164.5 158.1 163 161.6 164.5 165.5 162.8 172 165 174.7 161.8 170.7 162.8 165.9 159.6"/><path class="cls-22" d="M154.4,167.5a11.37,11.37,0,0,0,1.5,2.3c1.9-.8,10.7.3,10.7.3a5.76,5.76,0,0,0,2.3-2.4C164,169.1,155.3,167.5,154.4,167.5Z"/><polygon class="cls-5" points="164.5 154.2 160.6 154.2 157.7 151.9 154.4 151.9 162.6 157.8 171 153.2 169.4 151.3 164.5 154.2"/><path class="cls-3" d="M153.4,165s1.6,2.5,7.8,2.5,8.8-2.2,8.8-2.2-5,.5-8.4.6A66.84,66.84,0,0,1,153.4,165Z"/><path class="cls-21" d="M341,442.2H4.3a4.69,4.69,0,0,1-4.7-4.7h0a4.69,4.69,0,0,1,4.7-4.7H341a4.69,4.69,0,0,1,4.7,4.7h0A4.69,4.69,0,0,1,341,442.2Z"/><path class="cls-21" d="M341,533.11H4.3a4.69,4.69,0,0,1-4.7-4.7h0a4.69,4.69,0,0,1,4.7-4.7H341a4.69,4.69,0,0,1,4.7,4.7h0A4.69,4.69,0,0,1,341,533.11Z"/><path class="cls-21" d="M147.5,227.1l-8.1,13.1,26.4,30,23.4-32.1-7.6-12.7Zm17,30.7-17.2-17.6,4.4-5.1,27.1-2.7,2.4,5Z"/><path class="cls-23" d="M137.5,253.7a2.18,2.18,0,0,1,3.2-.4,7.11,7.11,0,0,0,4.7,1.9,5.87,5.87,0,0,0,2.9-.8,1.89,1.89,0,0,0,.8-1.3c0-.2,0-.3-.1-.4s-.2-.3-.6-.5A10.76,10.76,0,0,0,145,251h0a14.59,14.59,0,0,1-3.7-1.2,6.62,6.62,0,0,1-2.9-2.6,5.3,5.3,0,0,1-.7-2.8,6.4,6.4,0,0,1,2.5-4.9,8.75,8.75,0,0,1,5.3-1.6,11.47,11.47,0,0,1,6.4,2.4,2.61,2.61,0,0,1,.7,3.3,2.18,2.18,0,0,1-3.2.6,7.56,7.56,0,0,0-3.9-1.6,4.71,4.71,0,0,0-2.6.8c-.6.4-.7.8-.7,1a.6.6,0,0,0,.1.4c0,.1.2.3.5.4a9.77,9.77,0,0,0,3.1,1.1h0a18.71,18.71,0,0,1,4,1.3,6.29,6.29,0,0,1,3,2.6,6,6,0,0,1,.8,2.9,6.37,6.37,0,0,1-2.7,5.1,9.59,9.59,0,0,1-5.6,1.8,11.57,11.57,0,0,1-7.6-3.1A2.43,2.43,0,0,1,137.5,253.7Z"/><path class="cls-23" d="M156.6,253.2a11.34,11.34,0,0,1-2.9-7.8,12.11,12.11,0,0,1,2.9-7.8,9.78,9.78,0,0,1,7.4-3.4,9.16,9.16,0,0,1,7.1,3.4,11.31,11.31,0,0,1,3,7.8,11.13,11.13,0,0,1-3,7.8,9.32,9.32,0,0,1-7.1,3.4A9.94,9.94,0,0,1,156.6,253.2Zm1.7-7.7a7.76,7.76,0,0,0,1.5,4.7,5.58,5.58,0,0,0,4.1,1.6,5.52,5.52,0,0,0,3.9-1.6,6.77,6.77,0,0,0,1.7-4.7,6.69,6.69,0,0,0-1.7-4.6,5.81,5.81,0,0,0-3.9-1.7,6.1,6.1,0,0,0-4.1,1.7A7.24,7.24,0,0,0,158.3,245.5Z"/><path class="cls-23" d="M175.4,244.2a2.18,2.18,0,0,1,3.2-.4,7.11,7.11,0,0,0,4.7,1.9,5.87,5.87,0,0,0,2.9-.8,1.89,1.89,0,0,0,.8-1.3c0-.2,0-.3-.1-.4s-.2-.3-.6-.5a10.76,10.76,0,0,0-3.4-1.2h0a14.59,14.59,0,0,1-3.7-1.2,6.62,6.62,0,0,1-2.9-2.6,5.3,5.3,0,0,1-.7-2.8,6.4,6.4,0,0,1,2.5-4.9,8.75,8.75,0,0,1,5.3-1.6,11.47,11.47,0,0,1,6.4,2.4,2.61,2.61,0,0,1,.7,3.3,2.18,2.18,0,0,1-3.2.6,7.56,7.56,0,0,0-3.9-1.6,4.71,4.71,0,0,0-2.6.8c-.6.4-.7.8-.7,1a.6.6,0,0,0,.1.4c0,.1.2.3.5.4a9.77,9.77,0,0,0,3.1,1.1h0a18.71,18.71,0,0,1,4,1.3,6.29,6.29,0,0,1,3,2.6,6,6,0,0,1,.8,2.9,6.37,6.37,0,0,1-2.7,5.1,9.59,9.59,0,0,1-5.6,1.8,11.57,11.57,0,0,1-7.6-3.1A2.34,2.34,0,0,1,175.4,244.2Z"/><path class="cls-24" d="M274.5,114.3c-17.7-10.5-28.8-25.4-28.8-41.9,0-31.8,41-57.5,91.6-57.5s91.6,25.8,91.6,57.5-41,57.5-91.6,57.5a142.18,142.18,0,0,1-35.3-4.4c-10,5.4-27.5,14.2-38.7,16.1-2.7,0-4.8-.6-3.6-2.1C260.6,138.3,269.8,125.4,274.5,114.3Z"/><path class="cls-21" d="M275.2,56.9l-5.9-8a.59.59,0,0,1,.1-.8.63.63,0,0,1,.9.1l5.5,7.5,5.5-7.5a.57.57,0,0,1,.9.7l-5.8,8v7.8a.58.58,0,0,1-.6.6.65.65,0,0,1-.6-.6Z"/><path class="cls-21" d="M287.7,53.1a6.11,6.11,0,1,1-5.8,6.1A6,6,0,0,1,287.7,53.1Zm0,11a4.91,4.91,0,1,0-4.6-4.9A4.79,4.79,0,0,0,287.7,64.1Z"/><path class="cls-21" d="M297.5,53.7a.6.6,0,1,1,1.2,0v6.7a3.75,3.75,0,1,0,7.5,0V53.7a.6.6,0,1,1,1.2,0v6.7a5,5,0,1,1-9.9,0V53.7Z"/><path class="cls-21" d="M330.8,53.7v11a.6.6,0,1,1-1.2,0V62.9a5.47,5.47,0,0,1-4.6,2.4,6.11,6.11,0,0,1,0-12.2,5.87,5.87,0,0,1,4.6,2.4V53.7a.65.65,0,0,1,.6-.6A.58.58,0,0,1,330.8,53.7Zm-1.2,5.5a4.72,4.72,0,0,0-4.6-4.9,4.91,4.91,0,0,0,0,9.8A4.66,4.66,0,0,0,329.6,59.2Z"/><path class="cls-21" d="M336,53.7a.65.65,0,0,1,.6-.6.58.58,0,0,1,.6.6v2.7c.1-.1.1-.2.2-.3a5.7,5.7,0,0,1,4.9-3,.58.58,0,0,1,.6.6.65.65,0,0,1-.6.6,4.26,4.26,0,0,0-3.5,2,13.24,13.24,0,0,0-1.5,2.8.31.31,0,0,0-.1.2v5.4a.65.65,0,0,1-.6.6.58.58,0,0,1-.6-.6Z"/><path class="cls-21" d="M344.9,59.2a6,6,0,0,1,5.9-6.1,6.08,6.08,0,0,1,5.9,5.7h0v.1a.56.56,0,0,1-.6.5h-10a4.76,4.76,0,0,0,4.7,4.7,4.67,4.67,0,0,0,3.9-2.2.58.58,0,0,1,1,.6,5.75,5.75,0,0,1-4.9,2.8A6,6,0,0,1,344.9,59.2Zm1.3-.9h9.3a4.71,4.71,0,0,0-4.6-4A4.65,4.65,0,0,0,346.2,58.3Z"/><path class="cls-21" d="M278.9,88.1a3.8,3.8,0,0,0-3.8-3.8,3.86,3.86,0,0,0-3.8,3.8v6.7a.37.37,0,0,1-.1.3.76.76,0,0,1-.4.2h-.1c-.2,0-.3-.2-.4-.3v-.1h0V83.8a.58.58,0,0,1,.6-.6.65.65,0,0,1,.6.6V85a4.94,4.94,0,0,1,3.8-1.8,5,5,0,0,1,5,5v6.6a.65.65,0,0,1-.6.6.58.58,0,0,1-.6-.6V88.1Z"/><path class="cls-21" d="M290.7,83.1a6.11,6.11,0,1,1-5.8,6.1A6,6,0,0,1,290.7,83.1Zm0,11a4.91,4.91,0,1,0-4.6-4.9A4.79,4.79,0,0,0,290.7,94.1Z"/><path class="cls-21" d="M304.9,83.7a.65.65,0,0,1-.6.6h-1.6v8.9a1,1,0,0,0,.9.9.6.6,0,0,1,0,1.2,2.05,2.05,0,0,1-2.1-2.1V84.3H300c-.6,0-.6-.3-.6-.6s0-.6.6-.6h1.5V78.6a.6.6,0,0,1,1.2,0v4.5h1.6A.65.65,0,0,1,304.9,83.7Z"/><path class="cls-21" d="M328.4,83.7v11a.6.6,0,0,1-1.2,0V92.9a5.47,5.47,0,0,1-4.6,2.4,6.11,6.11,0,0,1,0-12.2,5.87,5.87,0,0,1,4.6,2.4V83.7a.65.65,0,0,1,.6-.6A.58.58,0,0,1,328.4,83.7Zm-1.2,5.5a4.72,4.72,0,0,0-4.6-4.9,4.91,4.91,0,0,0,0,9.8A4.72,4.72,0,0,0,327.2,89.2Z"/><path class="cls-21" d="M334.1,78.4a.65.65,0,0,1,.6-.6.58.58,0,0,1,.6.6V94.7a.6.6,0,1,1-1.2,0Z"/><path class="cls-21" d="M345.4,83.1a6.11,6.11,0,1,1-5.8,6.1A6,6,0,0,1,345.4,83.1Zm0,11a4.91,4.91,0,1,0-4.6-4.9A4.79,4.79,0,0,0,345.4,94.1Z"/><path class="cls-21" d="M364.6,88.1a3.8,3.8,0,0,0-3.8-3.8,3.86,3.86,0,0,0-3.8,3.8v6.7a.37.37,0,0,1-.1.3.76.76,0,0,1-.4.2h-.1c-.2,0-.3-.2-.4-.3v-.1h0V83.8a.58.58,0,0,1,.6-.6.65.65,0,0,1,.6.6V85a4.94,4.94,0,0,1,3.8-1.8,5,5,0,0,1,5,5v6.6a.65.65,0,0,1-.6.6.58.58,0,0,1-.6-.6V88.1Z"/><path class="cls-21" d="M370.3,89.2a6,6,0,0,1,5.9-6.1,6.08,6.08,0,0,1,5.9,5.7h0v.1a.56.56,0,0,1-.6.5h-10a4.76,4.76,0,0,0,4.7,4.7,4.67,4.67,0,0,0,3.9-2.2.58.58,0,0,1,1,.6,5.75,5.75,0,0,1-4.9,2.8A6,6,0,0,1,370.3,89.2Zm1.2-.9h9.3a4.71,4.71,0,0,0-4.6-4A4.8,4.8,0,0,0,371.5,88.3Z"/><path class="cls-21" d="M393.9,78.4a.65.65,0,0,1,.6-.6.58.58,0,0,1,.6.6V91a.6.6,0,0,1-1.2,0Zm0,15.7a.65.65,0,0,1,.6-.6.58.58,0,0,1,.6.6v.6a.6.6,0,0,1-1.2,0Z"/><path class="cls-21" d="M400.2,78.4a.65.65,0,0,1,.6-.6.58.58,0,0,1,.6.6V91a.6.6,0,0,1-1.2,0Zm0,15.7a.65.65,0,0,1,.6-.6.58.58,0,0,1,.6.6v.6a.6.6,0,0,1-1.2,0Z"/><path class="cls-21" d="M406.5,78.4a.65.65,0,0,1,.6-.6.58.58,0,0,1,.6.6V91a.6.6,0,0,1-1.2,0Zm0,15.7a.65.65,0,0,1,.6-.6.58.58,0,0,1,.6.6v.6a.6.6,0,0,1-1.2,0Z"/><path class="cls-23" d="M118.54,465.31l-14.3,19.6v18.9a3.74,3.74,0,0,1-3.8,3.8,3.86,3.86,0,0,1-3.8-3.8v-18.9l-14.3-19.6a3.64,3.64,0,0,1,.8-5.3,3.72,3.72,0,0,1,5.3.8l12,16.4,12-16.4a3.85,3.85,0,0,1,5.4-.8A4,4,0,0,1,118.54,465.31Z"/><path class="cls-23" d="M148.34,496.11h-17l-3.4,9.1a3.9,3.9,0,0,1-3.6,2.4,5.07,5.07,0,0,1-1.3-.2,4,4,0,0,1-2.3-5l15.5-41.2a3.88,3.88,0,0,1,3.7-2.4,3.79,3.79,0,0,1,3.7,2.4l15.5,41.2a3.93,3.93,0,0,1-2.3,5,4.44,4.44,0,0,1-1.3.2,3.9,3.9,0,0,1-3.6-2.4Zm-2.9-7.7-5.7-15-5.7,15Z"/><path class="cls-23" d="M176.24,503.81a3.8,3.8,0,0,1-3.8,3.8,3.74,3.74,0,0,1-3.8-3.8v-40.7a3.79,3.79,0,0,1,1.5-3.2,3.9,3.9,0,0,1,5.3.8L198,492v-28.8a3.86,3.86,0,0,1,3.8-3.8,3.8,3.8,0,0,1,3.8,3.8v40.6a3.8,3.8,0,0,1-3.8,3.8,4,4,0,0,1-2.9-1.4c-.1-.1-.3-.3-.3-.4l-22.4-31v29Z"/><path class="cls-23" d="M247.44,496.11h-17l-3.4,9.1a3.9,3.9,0,0,1-3.6,2.4,5.07,5.07,0,0,1-1.3-.2,4,4,0,0,1-2.3-5l15.5-41.2a3.88,3.88,0,0,1,3.7-2.4,3.79,3.79,0,0,1,3.7,2.4l15.5,41.2a3.93,3.93,0,0,1-2.3,5,4.44,4.44,0,0,1-1.3.2,3.9,3.9,0,0,1-3.6-2.4Zm-2.9-7.7-5.7-15-5.7,15Z"/></svg>