<?xml version="1.0" encoding="utf-8"?>
<!-- Generator: Adobe Illustrator 18.0.0, SVG Export Plug-In . SVG Version: 6.00 Build 0)  -->
<!DOCTYPE svg PUBLIC "-//W3C//DTD SVG 1.1//EN" "http://www.w3.org/Graphics/SVG/1.1/DTD/svg11.dtd">
<svg version="1.1" id="Capa_1" xmlns="http://www.w3.org/2000/svg" xmlns:xlink="http://www.w3.org/1999/xlink" x="0px" y="0px"
	 viewBox="0 0 59.4 47" enable-background="new 0 0 59.4 47" xml:space="preserve">
<path fill="#FFD55E" d="M11.4,1.8L2.6,15.6L31.3,47l25.5-33.7L48.5,0L11.4,1.8z M29.9,34L11.1,15.5l4.8-5.3l29.5-2.8l2.6,5.2
	L29.9,34z"/>
<g>
	<path fill="#235667" stroke="#FFD55E" stroke-width="0.25" stroke-miterlimit="10" d="M0.5,29.8C1.4,28.6,3,28.5,4,29.4
		c1.2,1,3.3,2.1,5.1,2c1.3,0,2.4-0.4,3.2-0.9c0.7-0.6,0.8-1,0.8-1.4c0-0.2,0-0.3-0.1-0.5c0-0.1-0.2-0.3-0.6-0.6
		c-0.7-0.5-2-1-3.7-1.3h0c-1.4-0.3-2.8-0.7-4-1.2c-1.3-0.6-2.4-1.4-3.2-2.7c-0.5-0.8-0.8-1.9-0.8-2.9c0-2.1,1.2-4,2.7-5.1
		c1.6-1.1,3.6-1.7,5.7-1.7c3.2,0,5.5,1.5,7,2.6c1.1,0.7,1.4,2.3,0.7,3.4c-0.7,1.1-2.3,1.4-3.4,0.7c-1.5-1-2.8-1.7-4.3-1.7
		c-1.2,0-2.2,0.4-2.8,0.8c-0.6,0.4-0.7,0.8-0.7,1.1c0,0.2,0,0.2,0.1,0.4c0,0.1,0.2,0.3,0.5,0.5c0.6,0.4,1.8,0.8,3.4,1.1l0,0h0
		c1.5,0.3,3,0.7,4.3,1.3c1.3,0.6,2.5,1.4,3.3,2.7c0.6,0.9,0.9,2,0.9,3.1c0,2.3-1.3,4.2-2.9,5.4c-1.7,1.2-3.8,1.9-6,1.9
		c-3.6,0-6.4-1.7-8.3-3.2C-0.2,32.4-0.3,30.8,0.5,29.8z"/>
	<path fill="#235667" stroke="#FFD55E" stroke-width="0.25" stroke-miterlimit="10" d="M21.3,29.2c-2-2-3.2-4.9-3.2-8.2
		c0-3.2,1.2-5.9,3.2-8.1c2.1-2.2,4.8-3.5,8-3.5c3.1,0,5.9,1.3,7.8,3.5c2.1,2.2,3.3,5,3.3,8.1c0,3.3-1.2,6.1-3.3,8.2
		c-1.9,2.2-4.7,3.5-7.8,3.5C26.1,32.8,23.4,31.4,21.3,29.2z M23.2,21.1c0,2,0.6,3.6,1.7,4.9c1.2,1.1,2.7,1.7,4.5,1.7
		c1.6,0,3.1-0.6,4.3-1.7c1.2-1.3,1.8-2.9,1.8-4.9c0-1.9-0.7-3.6-1.8-4.8c-1.2-1-2.7-1.8-4.3-1.8c-1.8,0-3.3,0.7-4.5,1.8
		C23.8,17.5,23.2,19.1,23.2,21.1z"/>
	<path fill="#235667" stroke="#FFD55E" stroke-width="0.25" stroke-miterlimit="10" d="M41.8,19.7c0.8-1.1,2.5-1.3,3.5-0.4
		c1.2,1,3.3,2.1,5.1,2c1.3,0,2.4-0.4,3.2-0.9c0.7-0.6,0.8-1,0.8-1.4c0-0.2,0-0.3-0.1-0.5c0-0.1-0.2-0.3-0.6-0.6
		c-0.7-0.5-2-1-3.7-1.3h0c-1.4-0.3-2.8-0.7-4-1.2c-1.3-0.6-2.4-1.4-3.2-2.7c-0.5-0.8-0.8-1.9-0.8-2.9c0-2.1,1.2-4,2.7-5.1
		c1.6-1.1,3.6-1.7,5.7-1.7c3.2,0,5.5,1.5,7,2.6c1.1,0.7,1.4,2.3,0.7,3.4c-0.7,1.1-2.3,1.4-3.4,0.7c-1.5-1-2.8-1.7-4.3-1.7
		c-1.2,0-2.2,0.4-2.8,0.8c-0.6,0.4-0.7,0.8-0.7,1.1c0,0.2,0,0.2,0.1,0.4c0,0.1,0.2,0.3,0.5,0.5c0.6,0.4,1.8,0.8,3.4,1.1l0,0h0
		c1.5,0.3,3,0.7,4.3,1.3c1.3,0.6,2.5,1.4,3.3,2.7c0.6,0.9,0.9,2,0.9,3.1c0,2.3-1.3,4.2-2.9,5.4c-1.7,1.2-3.8,1.9-6,1.9
		c-3.6,0-6.4-1.7-8.3-3.2C41.1,22.3,40.9,20.7,41.8,19.7z"/>
</g>
</svg>
